Patient4_TMGait_0pt5_01_left_43_EMG.mot
version=1
nRows=17
nColumns=33
inDegrees=no
endheader
time	1LAddLong	2LGlutMax	3LGlutMed	4LIliopsoas	5LSemiMemb	6LBicFemLong	7LRecFem	8LVastMed	9LVastLat	10LGasMed	11LTibAnt	12lTibPost	13LPeroneusLong	14LSol	15LExtDigLong	16LFlexDigLong	17RAddLong	18RGlutMax	19RGlutMed	20RIliopsoas	21RSemiMemb	22RBicFemLong	23RRecFem	24RVastMed	25RVastLat	26RGasMed	27RTibAnt	28RTibPost	29RPeroneusLong	30RSol	31RExtDigLong	32RFlexDigLong
57.705	0.009918	-0.12619	-0.18814	0.025482	-0.000763	0.10971	0.42007	0.034332	0.17166	-0.66544	0.011749	0.04425	0.082092	-0.34409	0.085754	-0.006256	0.013885	0.25085	-0.014496	-0.03479	0.013733	0.007477	0.14511	-0.063171	0.036316	0.007324	-0.49789	-0.011597	0.23911	0.37201	0.000305	-0.002899
57.706	0.006866	-0.095062	-0.13306	0.008545	-0.019531	0.12589	0.43228	0.024719	0.19318	-0.14862	-0.00351	0.043335	0.3186	-0.17273	0.046387	0.052795	0.038147	0.20142	-0.10925	0.000305	0.019684	-0.022278	0.1387	-0.061493	0.048981	0.024414	-0.61661	0.025635	0.41596	0.21378	-0.001373	0.006256
57.707	0.008545	-0.030518	-0.078888	0.005188	-0.045776	0.21988	0.47348	0.022583	0.057678	-0.11322	0.002441	0.026703	-0.22949	-0.079041	0.098419	0.040436	0.015869	0.25879	-0.11444	0.047455	0.007019	-0.011139	0.11017	-0.018463	0.06958	0.022583	0.15182	0.01297	0.41214	-0.17517	-0.00824	0.007172
57.708	-0.00473	0.0177	-0.085449	0.016632	-0.022888	0.031891	0.60272	0.00351	-0.09903	-0.40939	-0.000153	-0.029602	-0.40619	0.28183	0.092621	-0.009308	-0.006256	0.27298	0.22934	0.023499	0.000458	-0.023041	0.21866	0.006866	0.10239	0.017395	0.5452	0.000763	0.02121	-0.5838	-0.004578	0.001373
57.709	-0.00061	0.084686	-0.10239	-0.001221	0.005798	-0.068207	0.62546	0.025635	-0.25925	-0.2652	0.012054	-0.022888	-0.12283	0.24948	-0.033875	-0.018311	0.004425	0.27893	-0.039215	0.052032	0.011292	0.005035	0.26077	-0.000763	0.092773	0.001831	0.28564	-0.010834	-0.11826	-0.75928	-0.003052	-0.005035
57.71	-0.002289	0.19318	-0.082397	0.001678	0.015869	0.029755	0.58899	0.018158	-0.21973	-0.19211	0.020599	-0.014343	0.14145	-0.011139	-0.10757	-0.028534	0.018616	0.2153	-0.085144	0.032959	0.041351	-0.016479	0.26886	-0.013123	0.053253	-0.00061	-0.38513	-0.012207	-0.039215	-0.5191	-0.00351	0.011597
57.711	0.007172	0.23621	-0.079651	0.018463	0.021973	0.12466	0.56183	0.003204	-0.15579	0.041656	0.001678	0.006561	0.19196	-0.34256	-0.037689	-0.020447	-0.007782	0.21194	-0.088043	0.016327	0.034943	-0.062866	0.24262	-0.028839	0.057373	0.00412	-0.22842	-0.006866	-0.029602	-0.28412	-0.00351	-0.000458
57.712	0.013885	0.24002	-0.0914	0.006866	0.01358	0.23377	0.56366	0.005493	-0.17212	0.10559	-0.022888	0.024261	0.10284	-0.57785	0.014343	-0.020447	-0.018921	0.3038	-0.14725	0.030823	0.020142	-0.099945	0.18799	-0.055084	0.03418	0.019836	0.039215	-0.005035	-0.005646	-0.19745	-0.011597	0.00412
57.713	0.008392	0.24918	-0.022125	-0.005035	0.00946	0.20081	0.52689	-0.002289	-0.17456	0.016479	-0.020752	0.027771	0.12802	-0.24002	0.006714	-0.005646	-0.06073	0.26688	-0.093994	-0.15182	0.013123	-0.11902	0.12405	-0.11215	0.045471	0.009766	-0.10407	-0.005493	0.030365	-0.062866	0	-0.00061
57.714	0.010529	0.29907	-0.000153	0.009766	-0.049133	0.036011	0.48767	-0.005493	-0.07019	0.089417	-0.014801	0.015869	0.097961	0.023193	0.002441	-0.02655	-0.071716	0.2272	-0.080719	-0.27542	-0.020905	-0.096741	0.13641	-0.098114	0.023956	0.007019	0.062561	-0.010223	0.012665	0.030212	-0.003052	0.007782
57.715	0.014191	0.383	0.069427	0.003662	-0.11337	-0.030518	0.42954	0.005493	0.063324	0.073395	0.003052	0.012054	0.15778	0.041351	0.010376	-0.024414	-0.07309	0.25971	0.002747	-0.18784	-0.038757	-0.063171	0.18768	-0.12604	0.03479	0.001984	0.25162	-0.000458	-0.037842	0.22629	-0.000153	-0.00473
57.716	0.016174	0.43091	0.10101	0.027924	-0.16434	0.051575	0.41519	0.010681	0.17563	0.23499	0.026398	0.01236	0.58594	0.08194	0.065765	-0.022278	-0.045776	0.22446	0.027161	0.13657	-0.054016	-0.00946	0.18906	-0.072479	0.016479	-0.006714	0.2449	0.001526	-0.062408	0.14587	-0.002289	-0.00061
57.717	0.025024	0.49194	0.054321	0.045776	-0.16052	-0.005035	0.43137	0.018768	0.21622	0.59509	0.061493	0.028687	0.45303	0.22659	0.055542	-0.036926	-0.036011	0.26642	-0.068665	0.30853	-0.082397	0.038452	0.23895	-0.060577	0.035553	0.001984	0.013733	-0.001373	-0.030518	-0.048523	0.001068	0.001373
57.718	0.023651	0.62515	0.027771	0.032501	-0.043335	-0.1355	0.32684	0.018311	0.22171	0.62531	0.040894	0.018616	0.4953	0.2742	0.008698	-0.019531	-0.00061	0.25162	-0.08194	0.3421	-0.069885	0.053253	0.22278	0.009308	0.024109	0.004883	-0.14297	-0.010986	0.002747	-0.11856	-0.000305	0.002289
57.719	0.030518	0.62973	0.01236	0.009918	0.032501	-0.42328	0.28275	0.00351	0.11765	0.80032	-0.00885	-0.064392	0.006104	0.16922	-0.011749	-0.029755	0.078888	0.21835	-0.095673	0.22201	-0.060577	0.097809	0.23636	-0.024872	0.0354	0.004272	-0.18295	-0.015564	-0.02655	-0.11078	-0.002899	0.005035
57.72	0.022125	0.67627	-0.001526	-0.005493	-0.010376	-0.45609	0.21759	0	-0.025635	0.81619	-0.007477	0.11002	-0.91736	-0.003815	-0.075226	-0.028229	0.13184	0.17563	-0.004272	0.032043	-0.057373	0.075073	0.20432	-0.044708	0.028381	0.007629	0.004578	-0.007172	-0.048523	-0.2449	-0.000916	0.001831
57.721	0.01297	0.72449	0.018005	0.005341	-0.11627	-0.24628	0.20371	0.003052	-0.18738	0.51544	-0.031586	0.037079	-1.2071	-0.20248	-0.11856	0.000153	0.14801	0.15457	-0.020142	-0.040283	-0.04715	0.061188	0.215	-0.00824	0.038147	0.014648	-0.038147	-0.001068	0.051727	-0.33432	-0.006866	0.001068
